<svg xmlns="http://www.w3.org/2000/svg" version="1.0" preserveAspectRatio="xMidYMid meet" viewBox="65 102 170.87 198.8">
<g transform="translate(0.000000,401.000000) scale(0.100000,-0.100000)" stroke="none">
<path d="M650 2280 l0 -710 565 0 565 0 0 205 0 205 -310 0 -310 0 0 505 0 505 -255 0 -255 0 0 -710z"/>
<path d="M1390 2250 l0 -200 230 0 230 0 0 -272 c0 -240 -2 -277 -18 -308 -20 -41 -53 -60 -105 -60 -56 0 -104 26 -165 89 -32 33 -56 51 -62 45 -5 -5 -68 -79 -140 -164 l-130 -155 62 -60 c68 -64 155 -112 254 -140 88 -25 301 -31 394 -11 146 31 273 115 336 222 74 126 86 240 82 789 l-3 420 -482 3 -483 2 0 -200z"/>
</g>
</svg>